<svg version="1.2" xmlns="http://www.w3.org/2000/svg" viewBox="0 0 16 16" width="16" height="16">
	<title>cloud-sun-fill</title>
	<style>
		.s0 { fill: #ffffff } 
		.s1 { fill: #ffd700 } 
	</style>
	<g id="Layer 1">
		<path class="s0" d="m11.5 11c-0.1-1-0.6-2-1.3-2.7-0.7-0.7-1.7-1.2-2.7-1.3-1-0.1-2 0.1-2.9 0.7-0.9 0.5-1.5 1.3-1.8 2.3-0.8 0.1-1.5 0.4-2 1-0.6 0.6-0.8 1.3-0.8 2.1 0 0.8 0.4 1.5 0.9 2.1 0.6 0.5 1.3 0.8 2.1 0.8h8.5c0.7 0 1.3-0.3 1.8-0.7 0.4-0.5 0.7-1.1 0.7-1.8 0-0.7-0.3-1.3-0.7-1.8-0.5-0.4-1.1-0.7-1.8-0.7z"/>
		<path class="s1" d="m10.5 1.5q0-0.2-0.1-0.4-0.2-0.1-0.4-0.1-0.2 0-0.4 0.1-0.1 0.2-0.1 0.4v1q0 0.2 0.1 0.4 0.2 0.1 0.4 0.1 0.2 0 0.4-0.1 0.1-0.2 0.1-0.4z"/>
		<path class="s1" d="m14.2 3.5q0.2-0.2 0.2-0.4 0-0.2-0.2-0.3-0.1-0.2-0.3-0.2-0.2 0-0.4 0.2l-0.7 0.7q-0.1 0.1-0.1 0.3 0 0.2 0.1 0.4 0.2 0.1 0.4 0.1 0.2 0 0.3-0.1z"/>
		<path class="s1" d="m7 2.8q-0.2-0.2-0.4-0.2-0.2 0-0.3 0.2-0.2 0.1-0.2 0.3 0 0.2 0.2 0.4l0.7 0.7q0.1 0.1 0.3 0.1 0.2 0 0.4-0.1 0.1-0.2 0.1-0.4 0-0.2-0.1-0.3z"/>
		<path class="s1" d="m8.7 6.1c0 0-0.1 0 0.5 0.2 0.5 0.2 0.7 0.3 1.2 0.6 0.5 0.3 1 0.7 1.3 1.1 0.4 0.4 0.3 0.3 0.3 0.3 0.2 0.3 0.4 0.6 0.5 0.9 0.7-0.6 1.1-1.5 1-2.4-0.1-0.9-0.6-1.8-1.3-2.3-0.8-0.5-1.8-0.6-2.6-0.3-0.9 0.2-1.6 0.9-1.9 1.8q0.5 0 1 0.1z"/>
		<path class="s1" d="m14.5 6.5q-0.2 0-0.4 0.1-0.1 0.2-0.1 0.4 0 0.2 0.1 0.4 0.2 0.1 0.4 0.1h1q0.2 0 0.4-0.1 0.1-0.2 0.1-0.4 0-0.2-0.1-0.4-0.2-0.1-0.4-0.1z"/>
		<path id="Layer copy" class="s1" d="m14 9.7q-0.1-0.1-0.3-0.1-0.2 0-0.4 0.2-0.1 0.2-0.1 0.4 0.1 0.2 0.2 0.3l0.8 0.6q0.2 0.1 0.4 0.1 0.2 0 0.3-0.2 0.2-0.2 0.1-0.4 0-0.2-0.2-0.3z"/>
	</g>
</svg>