<svg version="1.2" xmlns="http://www.w3.org/2000/svg" viewBox="0 0 16 16" width="16" height="16">
	<title>cloud-snow-fill</title>
	<style>
		.s0 { fill: #e0ffff } 
		.s1 { fill: #ffffff } 
	</style>
	<g id="Layer 1">
		<path class="s0" d="m2.6 11.5q0.1 0 0.1 0 0.1 0 0.1 0.1 0 0 0.1 0.1 0 0 0 0v0.6l0.5-0.3q0.1 0 0.2 0 0.1 0 0.1 0.1 0.1 0.1 0 0.2 0 0.1-0.1 0.2l-0.5 0.2 0.5 0.3q0.1 0.1 0.1 0.2 0.1 0.1 0 0.2 0 0.1-0.1 0.1-0.1 0-0.2 0l-0.5-0.3v0.5q0 0.2-0.1 0.2-0.1 0.1-0.2 0.1-0.1 0-0.2-0.1 0 0 0-0.2v-0.5l-0.5 0.3q-0.1 0-0.2 0-0.1 0-0.2-0.1 0-0.1 0-0.2 0-0.1 0.1-0.2l0.5-0.3-0.5-0.2q-0.1-0.1-0.1-0.2 0-0.1 0-0.2 0.1-0.1 0.2-0.1 0.1 0 0.2 0l0.5 0.3v-0.6q0 0 0 0 0-0.1 0-0.1 0.1-0.1 0.1-0.1 0.1 0 0.1 0z"/>
		<path class="s0" d="m5.4 13.5q0 0 0.1 0 0 0 0.1 0.1 0 0 0 0.1 0 0 0 0v0.6l0.5-0.3q0.1 0 0.2 0 0.1 0 0.2 0.1 0 0.1 0 0.2 0 0.1-0.1 0.2l-0.5 0.2 0.5 0.3q0.1 0.1 0.1 0.2 0 0.1 0 0.2-0.1 0.1-0.2 0.1-0.1 0-0.2 0l-0.5-0.3v0.5q0 0.2 0 0.2-0.1 0.1-0.2 0.1-0.1 0-0.2-0.1-0.1 0-0.1-0.2v-0.5l-0.5 0.3q-0.1 0-0.2 0-0.1 0-0.1-0.1-0.1-0.1 0-0.2 0-0.1 0.1-0.2l0.5-0.3-0.5-0.2q-0.1-0.1-0.1-0.2-0.1-0.1 0-0.2 0-0.1 0.1-0.1 0.1 0 0.2 0l0.5 0.3v-0.6q0 0 0 0 0.1-0.1 0.1-0.1 0-0.1 0.1-0.1 0 0 0.1 0z"/>
		<path class="s0" d="m10.9 13.5q0 0 0.1 0 0 0 0.1 0.1 0 0 0 0.1 0 0 0 0v0.6l0.5-0.3q0.1 0 0.2 0 0.1 0 0.2 0.1 0 0.1 0 0.2 0 0.1-0.1 0.2l-0.5 0.2 0.5 0.3q0.1 0.1 0.1 0.2 0 0.1 0 0.2-0.1 0.1-0.2 0.1-0.1 0-0.2 0l-0.5-0.3v0.5q0 0.2 0 0.2-0.1 0.1-0.2 0.1-0.1 0-0.2-0.1-0.1 0-0.1-0.2v-0.5l-0.5 0.3q-0.1 0-0.2 0-0.1 0-0.1-0.1-0.1-0.1 0-0.2 0-0.1 0.1-0.2l0.5-0.3-0.5-0.2q-0.1-0.1-0.1-0.2-0.1-0.1 0-0.2 0-0.1 0.1-0.1 0.1 0 0.2 0l0.5 0.3v-0.6q0 0 0 0 0.1-0.1 0.1-0.1 0-0.1 0.1-0.1 0 0 0.1 0z"/>
		<path class="s0" d="m7.6 11.5q0.1 0 0.1 0 0.1 0 0.1 0.1 0 0 0.1 0.1 0 0 0 0v0.6l0.5-0.3q0.1 0 0.2 0 0.1 0 0.1 0.1 0.1 0.1 0 0.2 0 0.1-0.1 0.2l-0.5 0.2 0.5 0.3q0.1 0.1 0.1 0.2 0.1 0.1 0 0.2 0 0.1-0.1 0.1-0.1 0-0.2 0l-0.5-0.3v0.5q0 0.2-0.1 0.2-0.1 0.1-0.2 0.1-0.1 0-0.2-0.1 0 0 0-0.2v-0.5l-0.5 0.3q-0.1 0-0.2 0-0.1 0-0.2-0.1 0-0.1 0-0.2 0-0.1 0.1-0.2l0.5-0.3-0.5-0.2q-0.1-0.1-0.1-0.2 0-0.1 0-0.2 0.1-0.1 0.2-0.1 0.1 0 0.2 0l0.5 0.3v-0.6q0 0 0 0 0-0.1 0-0.1 0.1-0.1 0.1-0.1 0.1 0 0.1 0z"/>
		<path class="s0" d="m13.1 11.5q0.1 0 0.1 0 0.1 0 0.1 0.1 0 0 0.1 0.1 0 0 0 0v0.6l0.5-0.3q0.1 0 0.2 0 0.1 0 0.1 0.1 0.1 0.1 0 0.2 0 0.1-0.1 0.2l-0.5 0.2 0.5 0.3q0.1 0.1 0.1 0.2 0.1 0.1 0 0.2 0 0.1-0.1 0.1-0.1 0-0.2 0l-0.5-0.3v0.5q0 0.2-0.1 0.2-0.1 0.1-0.2 0.1-0.1 0-0.2-0.1 0 0 0-0.2v-0.5l-0.5 0.3q-0.1 0-0.2 0-0.1 0-0.2-0.1 0-0.1 0-0.2 0-0.1 0.1-0.2l0.5-0.3-0.5-0.2q-0.1-0.1-0.1-0.2 0-0.1 0-0.2 0.1-0.1 0.2-0.1 0.1 0 0.2 0l0.5 0.3v-0.6q0 0 0 0 0-0.1 0-0.1 0.1-0.1 0.1-0.1 0.1 0 0.1 0z"/>
		<path class="s1" d="m12.9 3.8c-0.2-1-0.8-1.9-1.6-2.6-0.9-0.7-1.9-1.1-2.9-1.1-1.1-0.1-2.2 0.2-3.1 0.8-0.8 0.6-1.5 1.5-1.9 2.5-0.9 0.5-1.8 0.9-2.4 1.6-0.6 0.6-1 1.5-1 2.5 0.1 0.9 0.5 1.8 1.1 2.4 0.7 0.6 1.6 1 2.6 0.9h9.5c0.7 0 1.4-0.4 2-0.9 0.5-0.6 0.8-1.3 0.8-2.1 0-0.7-0.3-1.5-0.8-2-0.5-0.6-1.2-0.9-2-1"/>
	</g>
</svg>