<svg version="1.2" xmlns="http://www.w3.org/2000/svg" viewBox="0 0 16 16" width="16" height="16">
	<title>cloud-lightning-rain-fill</title>
	<style>
		.s0 { fill: #ffffff } 
		.s1 { fill: #ffd700 } 
	</style>
	<g id="Layer 1">
		<path class="s0" d="m2.7 11q0.1 0.1 0.1 0.1 0.1 0.1 0.1 0.2 0.1 0.1 0.1 0.2 0 0.1 0 0.2l-0.5 1.5q-0.1 0.2-0.3 0.3-0.2 0.1-0.4 0-0.2-0.1-0.3-0.3 0-0.2 0-0.4l0.5-1.5q0.1-0.1 0.1-0.1 0.1-0.1 0.2-0.1 0.1-0.1 0.2-0.1 0.1 0 0.2 0z"/>
		<path class="s0" d="m12.2 11q0.1 0.1 0.1 0.1 0.1 0.1 0.1 0.2 0.1 0.1 0.1 0.2 0 0.1 0 0.2l-0.5 1.5q-0.1 0.1-0.3 0.2-0.2 0.1-0.4 0.1-0.1-0.1-0.2-0.3-0.1-0.2-0.1-0.4l0.5-1.5q0.1-0.1 0.1-0.1 0.1-0.1 0.2-0.1 0.1-0.1 0.2-0.1 0.1 0 0.2 0z"/>
		<path class="s0" d="m4.7 12.5q0.1 0.1 0.1 0.1 0.1 0.1 0.1 0.2 0.1 0.1 0.1 0.2 0 0.1 0 0.2l-0.5 1.5q-0.1 0.2-0.3 0.3-0.2 0.1-0.4 0-0.2-0.1-0.3-0.3 0-0.2 0-0.4l0.5-1.5q0.1-0.1 0.1-0.1 0.1-0.1 0.2-0.1 0.1-0.1 0.2-0.1 0.1 0 0.2 0z"/>
		<path class="s0" d="m14.2 12.5q0.1 0.1 0.1 0.1 0.1 0.1 0.1 0.2 0.1 0.1 0.1 0.2 0 0.1 0 0.2l-0.5 1.5q-0.1 0.1-0.3 0.2-0.2 0.1-0.4 0.1-0.1-0.1-0.2-0.3-0.1-0.2-0.1-0.4l0.5-1.5q0.1-0.1 0.1-0.1 0.1-0.1 0.2-0.1 0.1-0.1 0.2-0.1 0.1 0 0.2 0z"/>
		<path class="s1" d="m7.1 11.3q0-0.1 0-0.1 0.1-0.1 0.1-0.1 0.1-0.1 0.2-0.1 0 0 0.1 0h1q0.1 0 0.2 0.1 0.1 0 0.2 0.1 0.1 0.1 0.1 0.2 0 0.1 0 0.3l-0.3 0.8h0.8q0.1 0 0.3 0.1 0.1 0.1 0.1 0.2 0.1 0.1 0.1 0.3 0 0.1-0.1 0.2l-2 2.5q-0.1 0.1-0.3 0.2-0.2 0-0.3-0.1-0.2 0-0.3-0.2 0-0.2 0-0.3l0.4-1.4h-0.9q-0.1 0-0.2-0.1-0.2 0-0.2-0.1-0.1-0.1-0.1-0.3 0-0.1 0.1-0.2"/>
		<path class="s0" d="m13.2 4c-0.3-1.1-0.8-2-1.6-2.7-0.8-0.7-1.9-1.1-2.9-1.2-1.1-0.1-2.1 0.2-3 0.8-1 0.6-1.6 1.4-2 2.4-1 0.2-1.9 0.6-2.5 1.2-0.7 0.6-1.1 1.5-1.1 2.5 0 0.9 0.3 1.8 1 2.5 0.6 0.6 1.5 1 2.4 1h9.5c0.8-0.1 1.5-0.4 2-0.9 0.6-0.5 0.9-1.3 0.9-2 0-0.8-0.2-1.5-0.7-2.1-0.5-0.6-1.2-0.9-2-1"/>
	</g>
</svg>